# xmcd
#
# Track frame offsets:
#	150
#	14215
#	26879
#	41181
#	56663
#	69670
#	80213
#	93140
#	105003
#	116850
#	141766
#	153454
#
# Disc length: 2139 seconds
#
# Revision: 1
# Processed by: cddbd v1.5.1PL2 Copyright (c) Steve Scherf et al.
# Submitted via: audiograbber 1.83.01
#
DISCID=a808590c
DTITLE=Fleetwood Mac - Albatross
DYEAR=1900
DGENRE=Blues
TTITLE0=ALBATROSS
TTITLE1=TOO BIG FOR SO;EBODY
TTITLE2=THE SUN IS SHINING
TTITLE3=I BELIEVE MY TIME AINNT LONG
TTITLE4=NEED YOUR LOVE TONIGHT
TTITLE5=STOPP MESSING AROUND
TTITLE6=BLACK MAGIC WOMAN
TTITLE7=RAMBLING PONY
TTITLE8=COMING HOME
TTITLE9=JUST THE BLUES
TTITLE10=THE BIG BOAT
TTITLE11=JIGSAW PUZZLEE
EXTD=
EXTT0=
EXTT1=
EXTT2=
EXTT3=
EXTT4=
EXTT5=
EXTT6=
EXTT7=
EXTT8=
EXTT9=
EXTT10=
EXTT11=
PLAYORDER=
